<?xml version="1.0" encoding="utf-8"?>
<!-- Generator: Adobe Illustrator 21.1.0, SVG Export Plug-In . SVG Version: 6.00 Build 0)  -->
<svg version="1.1" id="Capa_1" xmlns="http://www.w3.org/2000/svg" xmlns:xlink="http://www.w3.org/1999/xlink" x="0px" y="0px"
	 viewBox="0 0 496.1 496.1" style="enable-background:new 0 0 496.1 496.1;" xml:space="preserve">
<style type="text/css">
	.st0{fill:#FCC400;}
	.st1{fill:#3F3A34;}
</style>
<g>
	<g>
		<path class="st0" d="M184.1,208c0-17.6-14.4-32-32-32h-24v16h24c8.8,0,16,7.2,16,16s-7.2,16-16,16h-24v16h24c8.8,0,16,7.2,16,16
			c0,8.8-7.2,16-16,16h-24v16h24c17.6,0,32-14.4,32-32c0-9.6-4.3-18.1-11.1-24C179.8,226.1,184.1,217.6,184.1,208z"/>
		<polygon class="st0" points="211.8,176 195.4,196.6 206.8,204.4 216.1,190.4 216.1,288 232.1,288 232.1,176 		"/>
	</g>
	<path class="st0" d="M432.1,280L432.1,280v-32l20.6-27.5c2.2-2.9,3.4-6.5,3.4-10.2V209c0-9.4-7.6-17-17-17c-4.5,0-8.8,1.8-12,5
		l-5.4,5.4c-3.6,3.6-8.5,5.7-13.7,5.7s-10-2-13.7-5.7l-4.7-4.7c-3.6-3.6-8.5-5.7-13.7-5.7s-10,2-13.7,5.7l-4.7,4.7
		c-3.6,3.6-8.5,5.7-13.7,5.7s-10-2-13.7-5.7l-5-5.4c-3.2-3.2-7.5-5-12-5c-9.4,0-17,7.6-17,17v1.4c0,3.7,1.2,7.2,3.4,10.2l20.6,27.4
		v32c-32.5,19.5-56,56-56,96.5c0,61.6,50.1,111.5,112,111.5s112-49.9,112-111.5C488.1,335.3,465.6,299.3,432.1,280z"/>
	<path class="st1" d="M96.1,264h-96v19.3L84.8,368h155.3v-16h-144V264z M80.1,340.7L19.4,280h60.7V340.7z"/>
	<rect x="128.1" y="32" class="st1" width="96" height="16"/>
	<path class="st1" d="M16.1,112h320v56h16V56c0-13.2-10.8-24-24-24h-24v16h24c4.4,0,8,3.6,8,8v40h-320V56c0-4.4,3.6-8,8-8h24V32h-24
		c-13.2,0-24,10.8-24,24v192h16L16.1,112L16.1,112z"/>
	<path class="st1" d="M88.1,80c13.2,0,24-10.8,24-24V24c0-13.2-10.8-24-24-24s-24,10.8-24,24v32C64.1,69.2,74.9,80,88.1,80z
		 M80.1,24c0-4.4,3.6-8,8-8s8,3.6,8,8v32c0,4.4-3.6,8-8,8s-8-3.6-8-8V24z"/>
	<path class="st1" d="M264.1,80c13.2,0,24-10.8,24-24V24c0-13.2-10.8-24-24-24c-13.2,0-24,10.8-24,24v32
		C240.1,69.2,250.9,80,264.1,80z M256.1,24c0-4.4,3.6-8,8-8s8,3.6,8,8v32c0,4.4-3.6,8-8,8s-8-3.6-8-8V24z"/>
	<rect x="112.1" y="320" class="st1" width="128" height="16"/>
	<polygon class="st1" points="304.1,168 304.1,128 48.1,128 48.1,248 64.1,248 64.1,144 288.1,144 288.1,168 	"/>
	<path class="st1" d="M440.1,275.6v-24.9l19-25.3c3.2-4.3,5-9.6,5-15V209c0-13.8-11.2-25-25-25c-6.7,0-12.9,2.6-17.7,7.3l-5.4,5.4
		c-4.2,4.2-11.8,4.2-16,0l-4.7-4.7c-10.3-10.3-28.3-10.3-38.6,0l-4.7,4.7c-4.2,4.2-11.8,4.2-16,0l-5.4-5.4c-4.7-4.7-11-7.3-17.7-7.3
		c-13.8,0-25,11.2-25,25v1.4c0,5.4,1.8,10.7,5,15l19,25.3v25c-34.6,22.5-56,60.8-56,100.9c0,65.9,53.8,119.5,120,119.5
		s120-53.6,120-119.5C496.1,335.6,474.7,297.4,440.1,275.6z M424.1,272h-96v-16h96V272z M304.1,210.3V209c0-4.9,4-9,9-9
		c2.4,0,4.6,0.9,6.3,2.6l5.4,5.4c10.3,10.3,28.3,10.3,38.6,0l4.7-4.7c4.2-4.2,11.8-4.2,16,0l4.7,4.7c10.3,10.3,28.3,10.3,38.6,0
		l5.4-5.4c1.7-1.7,3.9-2.6,6.3-2.6c4.9,0,9,4,9,9v1.4c0,1.9-0.6,3.8-1.8,5.4L428.1,240h-104l-18.2-24.3
		C304.7,214.2,304.1,212.3,304.1,210.3z M376.1,480c-57.3,0-104-46.4-104-103.5c0-35.3,19.2-69.1,50.3-88.5H430
		c31,18.7,50.2,52.4,50.2,88.5C480.1,433.6,433.4,480,376.1,480z"/>
	<g>
		<path class="st1" d="M414.7,391.6h-38.2c3.8-3,7.8-5.7,11.2-8.3c0.8-0.6,1.7-1.3,2.5-2h24.4c3.5,0,6.3-2.8,6.3-6.3
			c0-3.5-2.8-6.3-6.3-6.3h-12.8c1.7-2.7,3.2-5.5,4.3-8.7c2.8-8.2,1.4-17.6-3.3-24.7c-11.9-18-36.4-16.7-53.4-7.7
			c-7.2,3.8-0.8,14.6,6.3,10.8c8.5-4.4,17.9-6.4,27.1-3.4c6.3,2.1,11.6,7.8,12.1,14.6c0.6,7.7-4,14.1-9.4,19.2h-48.1
			c-3.5,0-6.3,2.8-6.3,6.3c0,3.5,2.8,6.3,6.3,6.3h32c-2.9,2.2-5.8,4.4-8.5,6.8c-1.2,1.1-2.3,2.2-3.3,3.4h-20.2
			c-3.5,0-6.3,2.8-6.3,6.3c0,3.5,2.8,6.3,6.3,6.3h12.9c-4.1,11.3-2.8,24.2,6.4,33.7c12.7,13.1,34.5,9.9,49.2,2.7
			c7.3-3.5,0.9-14.4-6.3-10.8c-11.4,5.6-32.3,8.5-37.8-6.7c-2.6-7.3-1.2-13.5,2.1-18.8h50.6c3.5,0,6.3-2.8,6.3-6.3
			C421,394.4,418.2,391.6,414.7,391.6z"/>
	</g>
</g>
</svg>
