<?xml version="1.0" encoding="utf-8"?>
<!-- Generator: Adobe Illustrator 21.1.0, SVG Export Plug-In . SVG Version: 6.00 Build 0)  -->
<svg version="1.1" id="Capa_1" xmlns="http://www.w3.org/2000/svg" xmlns:xlink="http://www.w3.org/1999/xlink" x="0px" y="0px"
	 viewBox="0 0 496 496" style="enable-background:new 0 0 496 496;" xml:space="preserve">
<style type="text/css">
	.st0{fill:#FCC400;}
	.st1{fill:#3F3A34;}
</style>
<circle class="st0" cx="208" cy="368" r="88"/>
<g>
	<rect x="32" y="176" class="st0" width="16" height="16"/>
	<rect x="64" y="176" class="st0" width="272" height="16"/>
	<rect x="32" y="240" class="st0" width="304" height="16"/>
	<rect x="32" y="208" class="st0" width="304" height="16"/>
</g>
<path class="st1" d="M96,16h304v48h16V0H84.7L0,84.7V104h96V16z M80,88H19.3L80,27.3V88z"/>
<polygon class="st1" points="16,120 0,120 0,496 352,496 352,480 16,480 "/>
<polygon class="st1" points="336,144 48,144 48,120 32,120 32,160 336,160 "/>
<polygon class="st1" points="384,64 384,32 112,32 112,48 368,48 368,64 "/>
<path class="st1" d="M112,368c0,52.9,43.1,96,96,96s96-43.1,96-96s-43.1-96-96-96S112,315.1,112,368z M288,368c0,44.1-35.9,80-80,80
	s-80-35.9-80-80s35.9-80,80-80S288,323.9,288,368z"/>
<path class="st1" d="M472,128h-16h-8h-17.5c-2.4-6.8-7.8-12.1-14.5-14.5V80h-48v33.5c-9.3,3.3-16,12.1-16,22.5v289.5l21.7,57.9
	c2.8,7.6,10.2,12.7,18.3,12.7s15.4-5.1,18.3-12.7l21.7-57.9V176h16v88c0,13.2,10.8,24,24,24s24-10.8,24-24V152
	C496,138.8,485.2,128,472,128z M400,96v16h-16V96H400z M376,128h32c4.4,0,8,3.6,8,8v88h-48v-88C368,131.6,371.6,128,376,128z
	 M368,416V240h48v176H368z M395.3,477.7c-1,2.8-5.6,2.8-6.6,0L371.5,432h40.9L395.3,477.7z M432,160v-16h16v16H432z M480,264
	c0,4.4-3.6,8-8,8s-8-3.6-8-8V144h8c4.4,0,8,3.6,8,8V264z"/>
<g>
	<path class="st1" d="M247.3,375.7h-38.9c3.9-3,8-5.8,11.5-8.5c0.9-0.7,1.7-1.3,2.5-2h24.9c3.5,0,6.4-2.9,6.4-6.4
		c0-3.5-2.9-6.4-6.4-6.4h-13.1c1.8-2.7,3.3-5.7,4.4-8.9c2.9-8.3,1.4-17.9-3.4-25.2c-12.1-18.4-37.1-17-54.4-7.9
		c-7.3,3.8-0.8,14.9,6.5,11.1c8.6-4.5,18.2-6.6,27.6-3.5c6.4,2.1,11.8,8,12.4,14.9c0.6,7.8-4.1,14.3-9.5,19.5h-49.1
		c-3.5,0-6.4,2.9-6.4,6.4c0,3.5,2.9,6.4,6.4,6.4h32.6c-3,2.2-5.9,4.5-8.6,7c-1.2,1.1-2.3,2.3-3.4,3.5h-20.6c-3.5,0-6.4,2.9-6.4,6.4
		c0,3.5,2.9,6.4,6.4,6.4h13.1c-4.2,11.5-2.8,24.7,6.5,34.3c12.9,13.4,35.1,10.1,50.2,2.8c7.4-3.6,0.9-14.6-6.5-11.1
		c-11.6,5.7-33,8.7-38.5-6.9c-2.7-7.5-1.3-13.7,2.2-19.2h51.6c3.5,0,6.4-2.9,6.4-6.4C253.7,378.6,250.8,375.7,247.3,375.7z"/>
</g>
</svg>
