<?xml version="1.0" encoding="utf-8"?>
<!-- Generator: Adobe Illustrator 21.1.0, SVG Export Plug-In . SVG Version: 6.00 Build 0)  -->
<svg version="1.1" id="Layer_1" xmlns="http://www.w3.org/2000/svg" xmlns:xlink="http://www.w3.org/1999/xlink" x="0px" y="0px"
	 viewBox="0 0 496 496" style="enable-background:new 0 0 496 496;" xml:space="preserve">
<style type="text/css">
	.st0{fill:#FCC400;}
	.st1{fill:#333333;}
</style>
<g>
	<rect x="40" y="128" class="st0" width="328" height="16"/>
	<rect x="40" y="168" class="st0" width="328" height="16"/>
	<rect x="40" y="208" class="st0" width="328" height="16"/>
	<rect x="40" y="248" class="st0" width="328" height="16"/>
	<path class="st0" d="M230.6,433.4l7.7-54L272,360l32,32l-19.4,33.7L230.6,433.4z"/>
</g>
<g>
	<polygon class="st1" points="262.8,389.9 228.7,424 56,424 56,440 240,440 240,435.3 274.2,401.2 	"/>
	<path class="st1" d="M482.7,215.4l9.1-9.1c5.6-5.6,5.6-14.8,0-20.4l-13.7-13.7c-5.6-5.6-14.8-5.6-20.4,0L408,221.9V72h64V44
		c0-24.3-19.7-44-44-44H44C19.8,0,0,19.7,0,44v20v432h408V290.1l63.4-63.4l2.9,2.9c2.8,2.8,4.3,6.5,4.3,10.4s-1.5,7.6-4.3,10.4
		l-40,40l11.3,11.3l40-40c12-12,12-31.4,0-43.4L482.7,215.4z M467.9,184.6l11.5,11.5l-8,8l-11.5-11.5L467.9,184.6z M456,44v12H88V44
		c0-10.6-3.8-20.4-10.1-28H428C443.4,16,456,28.6,456,44z M392,480H16V64V44c0-15.4,12.6-28,28-28s28,12.6,28,28v12v8v8h320v165.9
		L268.6,361.3l34.1,34.1l89.3-89.3V480z M302.7,349.9l11.5,11.5l-11.5,11.5l-11.5-11.5L302.7,349.9z M325.5,350L314,338.5
		l134.6-134.6l11.5,11.5L325.5,350z"/>
	<rect x="40" y="112" class="st1" width="328" height="16"/>
	<rect x="40" y="152" class="st1" width="328" height="16"/>
	<rect x="40" y="192" class="st1" width="328" height="16"/>
	<rect x="40" y="232" class="st1" width="328" height="16"/>
</g>
</svg>
