<?xml version="1.0" encoding="utf-8"?>
<!-- Generator: Adobe Illustrator 21.1.0, SVG Export Plug-In . SVG Version: 6.00 Build 0)  -->
<svg version="1.1" id="Layer_1" xmlns="http://www.w3.org/2000/svg" xmlns:xlink="http://www.w3.org/1999/xlink" x="0px" y="0px"
	 viewBox="0 0 496.1 496.1" style="enable-background:new 0 0 496.1 496.1;" xml:space="preserve">
<style type="text/css">
	.st0{fill:#FCC400;}
	.st1{fill:#333333;}
</style>
<path class="st0" d="M248.1,128.1c-52.9,0-96,43.1-96,96c0,34.5,18.3,65.9,48,83.1v20.9h96v-20.9c29.7-17.2,48-48.5,48-83.1
	C344.1,171.1,301,128.1,248.1,128.1z M248.1,248.1c-13.3,0-24-10.7-24-24s10.7-24,24-24c13.3,0,24,10.7,24,24
	S261.3,248.1,248.1,248.1z"/>
<g>
	<path class="st1" d="M284.1,312.1h-28v-57.1c13.8-3.6,24-16,24-30.9c0-17.6-14.4-32-32-32s-32,14.4-32,32c0,14.9,10.2,27.3,24,30.9
		v57.1h-28c-11,0-20,9-20,20c0,4.5,1.6,8.6,4.1,12c-2.5,3.4-4.1,7.5-4.1,12c0,11,9,20,20,20h72c11,0,20-9,20-20
		c0-4.5-1.6-8.6-4.1-12c2.5-3.4,4.1-7.5,4.1-12C304.1,321,295.1,312.1,284.1,312.1z M232.1,224.1c0-8.8,7.2-16,16-16s16,7.2,16,16
		s-7.2,16-16,16S232.1,232.9,232.1,224.1z M212.1,328.1h72c2.2,0,4,1.8,4,4s-1.8,4-4,4h-72c-2.2,0-4-1.8-4-4
		S209.9,328.1,212.1,328.1z M284.1,360.1h-72c-2.2,0-4-1.8-4-4s1.8-4,4-4h72c2.2,0,4,1.8,4,4S286.3,360.1,284.1,360.1z"/>
	<path class="st1" d="M490.3,297.6c-5.6-25.6-15.1-51.5-27.9-76.8C481,157,472.7,97.8,435.5,60.6c-33.1-33.1-83.9-44.2-143-31.3
		c-5.8,1.3-11.5,2.8-17.3,4.5c-25.3-12.8-51.2-22.3-76.8-27.9C133.1-8.5,77,3.8,40.4,40.4S-8.5,133.1,5.8,198.5
		c5.6,25.6,15.1,51.5,27.9,76.8c-19,64.7-10,123.5,26.8,160.3c24.1,24.1,57.6,36.6,96.8,36.6c14.7,0,30.1-1.7,46.2-5.3
		c5.8-1.3,11.5-2.8,17.3-4.5c25.3,12.8,51.2,22.3,76.8,27.9c17.8,3.9,34.9,5.8,51.1,5.8c43.4,0,80.3-13.7,107-40.4
		C492.3,419.2,504.6,363,490.3,297.6z M424.2,71.9c30,30,38.5,76.7,27,128.5c-18-30.8-41-60.4-68-87.5c-27.1-27.1-56.7-50-87.5-68
		C347.1,33.5,394,41.6,424.2,71.9z M368.1,340.1c0-11,9-20,20-20s20,9,20,20s-9,20-20,20S368.1,351.1,368.1,340.1z M402.3,307
		c-4.4-1.9-9.2-3-14.3-3c-19.8,0-36,16.2-36,36c0,7.3,2.2,14.1,6,19.8c-42,41.7-89.8,70.8-135.5,85.4
		c-34.6-18.3-68.1-43.1-98.3-73.4c-30.2-30.2-55.1-63.7-73.3-98.2c3.7-11.6,8.5-23.5,14.2-35.5c3.5,1.1,7.1,1.9,10.9,1.9
		c19.8,0,36-16.2,36-36c0-10-4.1-19-10.7-25.6c10.8-14.4,22.8-28.3,35.8-41.3c42.2-42.2,90.4-71.6,136.4-86.3
		c34.6,18.3,68.1,43.1,98.3,73.4c30.2,30.2,55.1,63.7,73.4,98.3C436.3,250.3,422,279,402.3,307z M96.1,204.1c0,11-9,20-20,20
		s-20-9-20-20s9-20,20-20S96.1,193,96.1,204.1z M21.4,195.1C8.4,135.2,19.1,84.3,51.7,51.7C75.2,28.1,108.3,16,147.4,16
		c15,0,31,1.8,47.6,5.4c19.4,4.3,39,10.9,58.5,19.6c-44.9,17.1-89.2,46.3-127.7,84.8c-13.9,13.9-26.7,28.8-38.2,44.3
		c-3.6-1.2-7.5-2.1-11.6-2.1c-19.8,0-36,16.2-36,36c0,10.2,4.3,19.4,11.2,26c-3.8,7.9-7.2,15.7-10.2,23.5
		C32.3,234.1,25.7,214.5,21.4,195.1z M71.9,424.2C42.3,394.7,33.4,348.3,45,295.8c18,30.7,40.9,60.3,68,87.4
		c27.1,27.1,56.7,50,87.5,68C149,462.6,102.2,454.5,71.9,424.2z M444.4,444.4c-32.6,32.6-83.5,43.3-143.4,30.2
		c-19.4-4.3-39-10.9-58.5-19.6c44.7-17,88.7-46,127.1-84.2c5.4,3.2,11.6,5.2,18.4,5.2c19.8,0,36-16.2,36-36c0-9-3.4-17.1-8.9-23.4
		c17.1-24.5,30.5-49.5,39.9-74.1c8.7,19.4,15.4,39.1,19.6,58.5C487.8,360.9,477,411.8,444.4,444.4z"/>
</g>
</svg>
