<?xml version="1.0" encoding="utf-8"?>
<!-- Generator: Adobe Illustrator 21.1.0, SVG Export Plug-In . SVG Version: 6.00 Build 0)  -->
<svg version="1.1" id="Layer_1" xmlns="http://www.w3.org/2000/svg" xmlns:xlink="http://www.w3.org/1999/xlink" x="0px" y="0px"
	 viewBox="0 0 496 496" style="enable-background:new 0 0 496 496;" xml:space="preserve">
<style type="text/css">
	.st0{fill:#FCC400;}
	.st1{fill:#333333;}
</style>
<path class="st0" d="M496,316H224V196c0-13.2,10.8-24,24-24h224c13.2,0,24,10.8,24,24V316z"/>
<g>
	<rect x="8" y="140" class="st1" width="480" height="16"/>
	<path class="st1" d="M72,4H8v128h64V4z M56,20v48H24V20H56z M24,116V84h32v32H24z"/>
	<circle class="st1" cx="40" cy="100" r="8"/>
	<path class="st1" d="M144,4H80v128h64V4z M128,20v48H96V20H128z M96,116V84h32v32H96z"/>
	<circle class="st1" cx="112" cy="100" r="8"/>
	<path class="st1" d="M216,4h-64v128h64V4z M200,20v48h-32V20H200z M168,116V84h32v32H168z"/>
	<circle class="st1" cx="184" cy="100" r="8"/>
	<path class="st1" d="M472,348c13.2,0,24-10.8,24-24v-24h-8H232h-8v24c0,13.2,10.8,24,24,24h80v16H144v-26.4l-3.7-5.6H168v-30
		c0-9.8-7-18.1-16.6-19.8c-13-2.3-38.6-6.2-63.4-6.2s-50.4,3.9-63.4,6.2C15,283.9,8,292.3,8,302v30h27.7l-3.7,5.6V364H0v48h24v80h16
		v-80h16v80h16v-80h352v80h16v-80h16v80h16v-80h24v-48H392v-16H472z M248,332c-4.4,0-8-3.6-8-8v-8h240v8c0,4.4-3.6,8-8,8h-80h-64
		H248z M24,316v-14c0-2,1.4-3.7,3.4-4.1c12.5-2.2,37-5.9,60.6-5.9s48.1,3.7,60.6,5.9c2,0.4,3.4,2.1,3.4,4.1v14h-8
		c-0.5-8.6-7.4-15.4-16-15.9V300h-1H49h-1v0.1c-8.6,0.5-15.5,7.3-16,15.9H24z M48,342.4l16-24V316h48v2.4l16,24V364H48V342.4z
		 M480,380v16h-8h-48H72H24h-8v-16h16h112h184h64H480z M376,364h-32v-16h32V364z"/>
</g>
</svg>
