<svg xmlns="http://www.w3.org/2000/svg" width="502.587" height="502.588" viewBox="0 0 502.587 502.588"><path d="M347.102 173.479c0 54.353-44.061 98.414-98.408 98.414-54.348 0-98.411-44.061-98.411-98.414 0-54.35 44.058-98.411 98.407-98.411 54.348.001 98.412 44.061 98.412 98.411zm99.76 289.594a6.605 6.605 0 0 1-8.063 1.106L367 422.274c-.741 8.138-1.812 20.062-2.919 31.974a7083.67 7083.67 0 0 1-2.745 29.144 1087.3 1087.3 0 0 1-.984 9.657c-.457 4.188-1.023 9.402-6.892 9.538h-.088a6.591 6.591 0 0 1-4.667-1.854c-1.034-1.002-1.722-2.45-1.954-3.912-2.353-8.11-39.142-92.681-69.193-160.997l-5.865 4.409a34.404 34.404 0 0 1-6.764 3.945c-10.642 4.651-23.201 3.427-32.754-3.185l-10.411-7.206c-28.932 67.803-63.311 149.265-65.524 157.239-.214 1.454-.882 2.909-1.918 3.922a6.613 6.613 0 0 1-4.643 1.915c-.03 0-.063 0-.089-.005-5.875-.083-6.49-5.281-6.994-9.46-.282-2.325-.646-5.659-1.081-9.654a5252.42 5252.42 0 0 1-3.061-29.104 15679.405 15679.405 0 0 1-3.268-31.94L63.85 459.364a6.6 6.6 0 0 1-8.08-1.018 6.61 6.61 0 0 1-.951-8.092l87.54-143.614a33.726 33.726 0 0 1-23.771-26.369l-8.394-46.204-28.216-37.545a33.714 33.714 0 0 1-.764-39.511l26.735-38.616 6.588-46.499c1.639-11.503 9.264-21.549 19.915-26.194a33.682 33.682 0 0 1 7.487-2.288l46.21-8.399 37.543-28.21a33.616 33.616 0 0 1 6.758-3.945c10.807-4.731 23.051-3.541 32.753 3.176l38.604 26.728 46.501 6.599a33.726 33.726 0 0 1 28.486 27.401l8.395 46.206 28.216 37.538a33.745 33.745 0 0 1 .766 39.518l-26.736 38.614-6.588 46.495c-1.638 11.511-9.259 21.547-19.914 26.203a33.71 33.71 0 0 1-7.48 2.282l-2.003.361 94.284 150.985a6.616 6.616 0 0 1-.872 8.107zm-84.885-289.594c0-62.564-50.726-113.287-113.288-113.287-62.567 0-113.29 50.722-113.29 113.287 0 62.567 50.723 113.292 113.29 113.292 62.562 0 113.288-50.724 113.288-113.292z"/></svg>