<!-- Generated by IcoMoon.io -->
<svg version="1.1" xmlns="http://www.w3.org/2000/svg" width="32" height="32" viewBox="0 0 32 32">
<title>interview</title>
<path fill="#fff" d="M24.774 8.258c2.277 0 4.129-1.852 4.129-4.129s-1.852-4.129-4.129-4.129c-2.277 0-4.129 1.852-4.129 4.129s1.852 4.129 4.129 4.129zM24.774 1.032c1.708 0 3.097 1.389 3.097 3.097s-1.389 3.097-3.097 3.097-3.097-1.389-3.097-3.097 1.389-3.097 3.097-3.097z"></path>
<path fill="#fff" d="M28.387 7.226v1.032c0.854 0 1.548 0.695 1.548 1.548v5.677h-1.548v-5.161h-1.032v5.161h-5.161v-5.161h-1.032v5.161h-1.548v-5.677c0-0.854 0.695-1.548 1.548-1.548v-1.032c-1.423 0-2.581 1.158-2.581 2.581v6.71h12.387v-6.71c0-1.423-1.158-2.581-2.581-2.581z"></path>
<path fill="#fff" d="M3.613 13.419h10.323c1.423 0 2.581-1.158 2.581-2.581v-4.454l3.703-4.32h-16.606c-1.423 0-2.581 1.158-2.581 2.581v6.194c0 1.423 1.158 2.581 2.581 2.581zM2.065 4.645c0-0.854 0.695-1.548 1.548-1.548h14.362l-2.491 2.906v4.836c0 0.854-0.695 1.548-1.548 1.548h-10.323c-0.854 0-1.548-0.695-1.548-1.548v-6.194z"></path>
<path fill="#fff" d="M13.419 10.323h1.032v1.032h-1.032v-1.032z"></path>
<path fill="#fff" d="M3.097 10.323h9.29v1.032h-9.29v-1.032z"></path>
<path fill="#fff" d="M3.097 8.258h11.355v1.032h-11.355v-1.032z"></path>
<path fill="#fff" d="M5.161 6.194h9.29v1.032h-9.29v-1.032z"></path>
<path fill="#fff" d="M3.097 6.194h1.032v1.032h-1.032v-1.032z"></path>
<path fill="#fff" d="M3.097 4.129h11.355v1.032h-11.355v-1.032z"></path>
<path fill="#fff" d="M3.097 19.613c0 2.277 1.852 4.129 4.129 4.129s4.129-1.852 4.129-4.129c0-2.277-1.852-4.129-4.129-4.129s-4.129 1.852-4.129 4.129zM10.323 19.613c0 1.708-1.389 3.097-3.097 3.097s-3.097-1.389-3.097-3.097 1.389-3.097 3.097-3.097 3.097 1.389 3.097 3.097z"></path>
<path fill="#fff" d="M10.839 22.71v1.032c0.854 0 1.548 0.695 1.548 1.548v5.677h-1.548v-5.161h-1.032v5.161h-5.161v-5.161h-1.032v5.161h-1.548v-5.677c0-0.854 0.695-1.548 1.548-1.548v-1.032c-1.423 0-2.581 1.158-2.581 2.581v6.71h12.387v-6.71c0-1.423-1.158-2.581-2.581-2.581z"></path>
<path fill="#fff" d="M28.387 17.548h-16.606l3.703 4.32v4.454c0 1.423 1.158 2.581 2.581 2.581h10.323c1.423 0 2.581-1.158 2.581-2.581v-6.194c0-1.423-1.158-2.581-2.581-2.581zM29.935 26.323c0 0.854-0.695 1.548-1.548 1.548h-10.323c-0.854 0-1.548-0.695-1.548-1.548v-4.836l-2.491-2.906h14.362c0.854 0 1.548 0.695 1.548 1.548v6.194z"></path>
<path fill="#fff" d="M17.548 25.806h9.29v1.032h-9.29v-1.032z"></path>
<path fill="#fff" d="M27.871 25.806h1.032v1.032h-1.032v-1.032z"></path>
<path fill="#fff" d="M17.548 23.742h11.355v1.032h-11.355v-1.032z"></path>
<path fill="#fff" d="M17.548 21.677h1.032v1.032h-1.032v-1.032z"></path>
<path fill="#fff" d="M19.613 21.677h9.29v1.032h-9.29v-1.032z"></path>
<path fill="#fff" d="M17.548 19.613h11.355v1.032h-11.355v-1.032z"></path>
</svg>
