<?xml version="1.0" encoding="utf-8"?>
<!-- Generator: Adobe Illustrator 21.1.0, SVG Export Plug-In . SVG Version: 6.00 Build 0)  -->
<svg version="1.1" id="Layer_1" xmlns="http://www.w3.org/2000/svg" xmlns:xlink="http://www.w3.org/1999/xlink" x="0px" y="0px"
	 viewBox="0 0 496 496" style="enable-background:new 0 0 496 496;" xml:space="preserve">
<style type="text/css">
	.st0{fill:#FCC400;}
	.st1{fill:#333333;}
</style>
<g>
	<rect x="162.2" y="85.8" class="st0" width="171.6" height="76.2"/>
	<g>
		<path class="st1" d="M183.7,496h128.6c32.9,0,59.6-26.7,59.6-59.6v-382c0-30-24.4-54.4-54.4-54.4h-139c-30,0-54.4,24.4-54.4,54.4
			v382C124.1,469.3,150.8,496,183.7,496z M143.2,54.8c0-19.8,16-35.8,35.8-35.8h138.6c19.5,0,35.3,15.8,35.3,35.3v386.8
			c0,19.8-16,35.8-35.8,35.8H190.9c-26.3,0-47.7-21.4-47.7-47.7V54.8z"/>
		<rect x="200.3" y="38.1" class="st1" width="95.3" height="19.1"/>
		<path class="st1" d="M248,181.1c-26.3,0-47.7,21.4-47.7,47.7s21.4,47.7,47.7,47.7s47.7-21.4,47.7-47.7S274.3,181.1,248,181.1z
			 M248,257.3c-15.8,0-28.6-12.8-28.6-28.6s12.8-28.6,28.6-28.6s28.6,12.8,28.6,28.6S263.8,257.3,248,257.3z"/>
		<rect x="162.2" y="305" class="st1" width="28.6" height="19.1"/>
		<rect x="209.9" y="305" class="st1" width="28.6" height="19.1"/>
		<rect x="257.5" y="305" class="st1" width="28.6" height="19.1"/>
		<rect x="305.2" y="305" class="st1" width="28.6" height="19.1"/>
		<rect x="162.2" y="343.1" class="st1" width="28.6" height="19.1"/>
		<rect x="209.9" y="343.1" class="st1" width="28.6" height="19.1"/>
		<rect x="257.5" y="343.1" class="st1" width="28.6" height="19.1"/>
		<rect x="305.2" y="343.1" class="st1" width="28.6" height="19.1"/>
		<rect x="162.2" y="381.2" class="st1" width="28.6" height="19.1"/>
		<rect x="209.9" y="381.2" class="st1" width="28.6" height="19.1"/>
		<rect x="257.5" y="381.2" class="st1" width="28.6" height="19.1"/>
		<rect x="305.2" y="381.2" class="st1" width="28.6" height="19.1"/>
		<rect x="162.2" y="266.9" class="st1" width="28.6" height="19.1"/>
		<rect x="305.2" y="266.9" class="st1" width="28.6" height="19.1"/>
		<polygon class="st1" points="181.3,85.8 162.2,85.8 162.2,171.6 333.8,171.6 333.8,152.5 181.3,152.5 		"/>
	</g>
</g>
</svg>
